<svg width="182" height="182" viewBox="0 0 182 182" fill="none" xmlns="http://www.w3.org/2000/svg">
<path fill-rule="evenodd" clip-rule="evenodd" d="M39.2856 39.8064H124.174C131.56 39.8064 137.58 45.8652 137.58 53.2112V141.957C137.58 149.3 131.56 155.362 124.174 155.362H39.2856C31.9396 155.362 25.8794 149.3 25.8794 141.957V53.2112C25.8794 45.8666 31.9411 39.8064 39.2856 39.8064Z" fill="#113FFF"/>
<path fill-rule="evenodd" clip-rule="evenodd" d="M39.2856 39.8064H123.975V59.1128C123.975 98.9688 91.3824 131.561 51.5278 131.561H25.8794V53.2112C25.8794 45.8666 31.9411 39.8064 39.2856 39.8064Z" fill="#95A9FF"/>
<path fill-rule="evenodd" clip-rule="evenodd" d="M81.75 49.2395H95.6376V87.2081C95.6376 91.0212 92.5069 94.1519 88.6952 94.1519H81.7514L81.75 49.2395Z" fill="#113FFF"/>
<path fill-rule="evenodd" clip-rule="evenodd" d="M88.6952 72.1168C90.3009 72.1168 91.6248 70.7915 91.6248 69.1462C91.6248 67.5419 90.2995 66.218 88.6952 66.218C87.091 66.218 85.7656 67.5433 85.7656 69.1462C85.7642 70.7915 87.0895 72.1168 88.6952 72.1168Z" fill="#514D6C"/>
<path fill-rule="evenodd" clip-rule="evenodd" d="M88.6952 78.4192C90.3009 78.4192 91.6248 79.7445 91.6248 81.3898C91.6248 82.9941 90.2995 84.318 88.6952 84.318C87.091 84.318 85.7656 82.9927 85.7656 81.3898C85.7642 79.7431 87.0895 78.4192 88.6952 78.4192Z" fill="#514D6C"/>
<path d="M81.7499 99.7023C80.9683 99.7023 80.334 99.0694 80.334 98.2864V50.7248C80.334 49.9418 80.9683 49.3088 81.7499 49.3088C82.5315 49.3088 83.1659 49.9418 83.1659 50.7248V98.2864C83.1659 99.0694 82.5329 99.7023 81.7499 99.7023Z" fill="#2E294E"/>
<path fill-rule="evenodd" clip-rule="evenodd" d="M58.5098 25.8792H104.949V39.8064H58.5098V25.8792Z" fill="#2E294E"/>
<path fill-rule="evenodd" clip-rule="evenodd" d="M81.75 49.2394L104.949 25.8792L111.893 39.8064L92.8284 59.0321C91.8259 60.036 90.5416 60.4367 89.1766 60.2356C87.8117 59.9949 86.6874 59.1935 86.0856 57.9489L81.75 49.2394Z" fill="#514D6C"/>
<path fill-rule="evenodd" clip-rule="evenodd" d="M81.7497 49.2394L58.5098 25.8792L51.5674 39.8064L70.6331 59.0321C71.6356 60.036 72.9198 60.4367 74.2848 60.2356C75.6894 59.9949 76.774 59.1935 77.4155 57.9489L81.7497 49.2394Z" fill="#514D6C"/>
<path fill-rule="evenodd" clip-rule="evenodd" d="M124.938 145.569C137.701 145.569 148.136 135.094 148.136 122.247C148.136 109.365 137.701 98.8896 124.938 98.8896C112.173 98.8896 101.778 109.365 101.778 122.247C101.778 135.093 112.174 145.569 124.938 145.569Z" fill="#A9DBF1"/>
<path d="M125.139 134.138C124.76 134.138 124.399 133.988 124.133 133.719L109.883 119.353C109.332 118.798 109.337 117.902 109.892 117.351C110.448 116.8 111.344 116.804 111.894 117.359L125.139 130.713L154.357 101.264C154.906 100.708 155.804 100.705 156.359 101.256C156.914 101.807 156.918 102.703 156.367 103.258L126.144 133.719C125.878 133.988 125.517 134.138 125.139 134.138Z" fill="#53B7E4"/>
</svg>
