<svg width="182" height="182" viewBox="0 0 182 182" fill="none" xmlns="http://www.w3.org/2000/svg">
<g opacity="0.3">
<path fill-rule="evenodd" clip-rule="evenodd" d="M39.2856 39.8066H124.174C131.56 39.8066 137.58 45.8655 137.58 53.2114V141.957C137.58 149.3 131.56 155.362 124.174 155.362H39.2856C31.9396 155.362 25.8794 149.3 25.8794 141.957V53.2114C25.8794 45.8669 31.9411 39.8066 39.2856 39.8066Z" fill="#113FFF"/>
<path fill-rule="evenodd" clip-rule="evenodd" d="M39.2856 39.8066H123.975V59.1131C123.975 98.9691 91.3824 131.561 51.5278 131.561H25.8794V53.2114C25.8794 45.8669 31.9411 39.8066 39.2856 39.8066Z" fill="#95A9FF"/>
<path fill-rule="evenodd" clip-rule="evenodd" d="M81.75 49.2397H95.6376V87.2083C95.6376 91.0215 92.5069 94.1521 88.6952 94.1521H81.7514L81.75 49.2397Z" fill="#113FFF"/>
<path fill-rule="evenodd" clip-rule="evenodd" d="M88.6952 72.1171C90.3009 72.1171 91.6248 70.7918 91.6248 69.1464C91.6248 67.5422 90.2995 66.2183 88.6952 66.2183C87.091 66.2183 85.7656 67.5436 85.7656 69.1464C85.7642 70.7918 87.0895 72.1171 88.6952 72.1171Z" fill="#514D6C"/>
<path fill-rule="evenodd" clip-rule="evenodd" d="M88.6952 78.4194C90.3009 78.4194 91.6248 79.7448 91.6248 81.3901C91.6248 82.9944 90.2995 84.3183 88.6952 84.3183C87.091 84.3183 85.7656 82.9929 85.7656 81.3901C85.7642 79.7433 87.0895 78.4194 88.6952 78.4194Z" fill="#514D6C"/>
<path d="M81.7499 99.7026C80.9683 99.7026 80.334 99.0696 80.334 98.2866V50.725C80.334 49.942 80.9683 49.3091 81.7499 49.3091C82.5315 49.3091 83.1659 49.942 83.1659 50.725V98.2866C83.1659 99.0696 82.5329 99.7026 81.7499 99.7026Z" fill="#2E294E"/>
<path fill-rule="evenodd" clip-rule="evenodd" d="M58.5098 25.8794H104.949V39.8066H58.5098V25.8794Z" fill="#2E294E"/>
<path fill-rule="evenodd" clip-rule="evenodd" d="M81.75 49.2397L104.949 25.8794L111.893 39.8066L92.8284 59.0323C91.8259 60.0362 90.5416 60.437 89.1766 60.2359C87.8117 59.9952 86.6874 59.1938 86.0856 57.9491L81.75 49.2397Z" fill="#514D6C"/>
<path fill-rule="evenodd" clip-rule="evenodd" d="M81.7497 49.2397L58.5098 25.8794L51.5674 39.8066L70.6331 59.0323C71.6356 60.0362 72.9198 60.437 74.2848 60.2359C75.6894 59.9952 76.774 59.1938 77.4155 57.9491L81.7497 49.2397Z" fill="#514D6C"/>
<path fill-rule="evenodd" clip-rule="evenodd" d="M124.938 145.569C137.701 145.569 148.136 135.094 148.136 122.247C148.136 109.365 137.701 98.8896 124.938 98.8896C112.173 98.8896 101.778 109.365 101.778 122.247C101.778 135.093 112.174 145.569 124.938 145.569Z" fill="#A9DBF1"/>
<path d="M125.139 134.138C124.76 134.138 124.399 133.988 124.133 133.719L109.883 119.353C109.332 118.798 109.337 117.902 109.892 117.351C110.448 116.8 111.344 116.804 111.894 117.359L125.139 130.713L154.357 101.264C154.906 100.708 155.804 100.705 156.359 101.256C156.914 101.807 156.918 102.703 156.367 103.258L126.144 133.719C125.878 133.988 125.517 134.138 125.139 134.138Z" fill="#53B7E4"/>
</g>
</svg>
