<svg width="182" height="182" viewBox="0 0 182 182" fill="none" xmlns="http://www.w3.org/2000/svg">
<path fill-rule="evenodd" clip-rule="evenodd" d="M161.262 87.4289C157.93 113.438 154.56 139.407 151.227 165.415C150.906 167.983 148.739 169.911 146.09 169.911C111.533 169.911 76.934 169.911 42.3368 169.911C39.7272 169.911 37.5608 167.985 37.1983 165.415C33.8666 139.407 30.5363 113.438 27.2046 87.4289L94.2326 81.8911L161.262 87.4289Z" fill="#113FFF"/>
<path fill-rule="evenodd" clip-rule="evenodd" d="M34.6298 145.388C32.1406 126.081 29.6924 106.735 27.2046 87.4289L94.2326 81.8911L133.367 85.1421C127.506 119.218 97.645 145.388 61.9632 145.388H34.6298Z" fill="#95A9FF"/>
<path fill-rule="evenodd" clip-rule="evenodd" d="M45.2255 100.715H49.6007C50.9643 100.715 52.0885 101.758 52.2089 103.123C52.41 105.812 52.6521 108.541 52.8517 111.231C53.0924 113.76 53.2935 116.33 53.4932 118.897C53.5739 119.66 53.3332 120.302 52.8121 120.865C52.3293 121.426 51.6878 121.708 50.9246 121.708C49.5597 121.708 48.2372 121.708 46.8722 121.708C45.5469 121.708 44.424 120.705 44.3037 119.38C44.0233 116.65 43.743 113.921 43.4598 111.231C43.1794 108.664 42.9387 106.134 42.6583 103.565C42.5776 102.843 42.8183 102.161 43.3394 101.598C43.8208 101.035 44.5033 100.715 45.2255 100.715Z" fill="white"/>
<path fill-rule="evenodd" clip-rule="evenodd" d="M68.6256 100.715H73.0405C74.4055 100.715 75.5694 101.839 75.609 103.244C75.6897 105.893 75.8101 108.583 75.8894 111.231C76.0097 113.8 76.0905 116.409 76.1697 119.017C76.2094 119.741 75.9687 120.382 75.4476 120.905C74.9648 121.426 74.3234 121.706 73.6012 121.706C72.2363 121.706 70.8713 121.706 69.5063 121.706C68.1413 121.706 67.0171 120.623 66.9378 119.258C66.7778 116.569 66.6164 113.879 66.4564 111.23C66.336 108.663 66.176 106.053 66.0542 103.443C66.016 102.721 66.2567 102.078 66.7367 101.557C67.2606 100.995 67.9035 100.715 68.6256 100.715Z" fill="white"/>
<path fill-rule="evenodd" clip-rule="evenodd" d="M92.0253 100.715H96.4006C97.1227 100.715 97.7259 100.995 98.247 101.518C98.7681 101.999 99.0102 102.642 99.0102 103.364C98.9691 105.974 98.928 108.623 98.928 111.231C98.8884 113.841 98.8473 116.49 98.8473 119.139C98.8473 120.542 97.6849 121.706 96.2392 121.706C94.8742 121.706 93.5503 121.706 92.1853 121.706C90.7396 121.706 89.6168 120.542 89.5757 119.139C89.5361 116.49 89.5361 113.841 89.495 111.231C89.495 108.623 89.4554 105.974 89.4554 103.324C89.4157 102.643 89.6961 101.999 90.1789 101.519C90.7014 100.995 91.3018 100.715 92.0253 100.715Z" fill="white"/>
<path fill-rule="evenodd" clip-rule="evenodd" d="M115.425 100.715H119.801C120.524 100.715 121.166 100.995 121.688 101.559C122.17 102.08 122.41 102.723 122.369 103.484C122.249 106.053 122.089 108.663 121.927 111.231C121.807 113.88 121.647 116.571 121.484 119.259C121.446 120.624 120.281 121.708 118.917 121.708C117.554 121.708 116.187 121.708 114.822 121.708C114.1 121.708 113.457 121.427 112.976 120.906C112.455 120.384 112.213 119.742 112.252 119.019C112.333 116.411 112.412 113.801 112.534 111.232C112.615 108.544 112.735 105.894 112.814 103.205C112.896 101.839 114.021 100.715 115.425 100.715Z" fill="white"/>
<path fill-rule="evenodd" clip-rule="evenodd" d="M138.825 100.715H143.2C143.964 100.715 144.605 101.036 145.086 101.598C145.609 102.159 145.85 102.843 145.769 103.565C145.487 106.134 145.246 108.664 144.966 111.231C144.686 113.92 144.405 116.65 144.124 119.38C144.002 120.705 142.879 121.708 141.555 121.708C140.19 121.708 138.866 121.708 137.501 121.708C136.739 121.708 136.097 121.427 135.615 120.865C135.094 120.303 134.852 119.66 134.933 118.897C135.135 116.33 135.335 113.76 135.536 111.231C135.777 108.501 136.017 105.814 136.217 103.084C136.336 101.758 137.46 100.715 138.825 100.715Z" fill="white"/>
<path fill-rule="evenodd" clip-rule="evenodd" d="M48.7982 135.674H52.5307C53.856 135.674 54.9788 136.716 55.0992 138.042C55.3003 140.772 55.5424 143.461 55.7817 146.151C55.9827 148.718 56.1824 151.288 56.4231 153.856C56.4628 154.579 56.222 155.261 55.742 155.823C55.2196 156.344 54.5781 156.626 53.8149 156.626C52.6921 156.626 51.5678 156.626 50.4039 156.626C49.0786 156.626 47.9954 155.662 47.8354 154.338C47.555 151.608 47.2747 148.879 46.9929 146.151C46.7522 143.622 46.5101 141.093 46.2297 138.523C46.149 137.761 46.3897 137.079 46.8726 136.517C47.3936 135.956 48.0365 135.674 48.7982 135.674Z" fill="white"/>
<path fill-rule="evenodd" clip-rule="evenodd" d="M70.5922 135.674H74.2836C75.6882 135.674 76.8521 136.797 76.8932 138.162C76.9739 140.851 77.0942 143.502 77.1735 146.151C77.2939 148.759 77.3746 151.369 77.4539 153.977C77.4935 154.699 77.2528 155.342 76.7318 155.863C76.2489 156.384 75.6075 156.626 74.8839 156.626C73.7215 156.626 72.5972 156.626 71.4729 156.626C70.0683 156.626 68.9441 155.583 68.8633 154.178C68.743 151.529 68.583 148.838 68.4216 146.151C68.3012 143.582 68.1412 141.012 67.9798 138.403C67.9401 137.681 68.1809 137.038 68.7019 136.477C69.1876 135.956 69.829 135.674 70.5922 135.674Z" fill="white"/>
<path fill-rule="evenodd" clip-rule="evenodd" d="M92.3468 135.674H96.0807C96.8028 135.674 97.4046 135.955 97.9271 136.436C98.4085 136.957 98.6492 137.56 98.6492 138.282C98.6492 140.932 98.6096 143.541 98.5685 146.151C98.5685 148.799 98.5289 151.448 98.4878 154.097C98.4878 155.502 97.3239 156.626 95.9193 156.626C94.7964 156.626 93.6325 156.626 92.5083 156.626C91.0626 156.626 89.9397 155.502 89.8987 154.097C89.8987 151.448 89.859 148.799 89.859 146.151C89.8194 143.541 89.7783 140.932 89.7783 138.282C89.7783 137.56 90.0204 136.957 90.5019 136.436C91.0215 135.915 91.6247 135.674 92.3468 135.674Z" fill="white"/>
<path fill-rule="evenodd" clip-rule="evenodd" d="M114.101 135.674H117.834C118.597 135.674 119.199 135.955 119.72 136.476C120.242 137.036 120.483 137.681 120.443 138.401C120.283 141.011 120.122 143.58 120 146.149C119.84 148.837 119.679 151.527 119.558 154.176C119.478 155.581 118.353 156.625 116.949 156.625C115.826 156.625 114.662 156.625 113.538 156.625C112.816 156.625 112.173 156.383 111.691 155.861C111.17 155.34 110.928 154.698 110.969 153.975C111.05 151.366 111.129 148.756 111.25 146.149C111.33 143.5 111.451 140.851 111.53 138.161C111.572 136.797 112.736 135.674 114.101 135.674Z" fill="white"/>
<path fill-rule="evenodd" clip-rule="evenodd" d="M135.896 135.674H139.629C140.391 135.674 141.034 135.955 141.555 136.517C142.036 137.079 142.277 137.761 142.196 138.523C141.916 141.092 141.675 143.622 141.395 146.151C141.154 148.879 140.873 151.608 140.592 154.338C140.432 155.663 139.348 156.626 137.983 156.626C136.86 156.626 135.736 156.626 134.611 156.626C133.849 156.626 133.207 156.344 132.686 155.823C132.165 155.263 131.962 154.579 132.005 153.856C132.245 151.288 132.446 148.718 132.646 146.151C132.887 143.462 133.088 140.772 133.327 138.042C133.446 136.718 134.57 135.674 135.896 135.674Z" fill="white"/>
<path fill-rule="evenodd" clip-rule="evenodd" d="M25.1159 87.4291H163.348C166.397 87.4291 168.926 84.9413 168.926 81.8913C168.926 78.8414 166.397 76.3125 163.348 76.3125H25.1159C22.0659 76.3125 19.5781 78.8414 19.5781 81.8913C19.5781 84.9413 22.0659 87.4291 25.1159 87.4291Z" fill="#3F3B5D"/>
<path fill-rule="evenodd" clip-rule="evenodd" d="M25.1159 87.429H132.925C133.648 83.817 134.13 80.1256 134.29 76.311H25.1159C22.0659 76.311 19.5781 78.8399 19.5781 81.8899C19.5781 84.9412 22.0659 87.429 25.1159 87.429Z" fill="#514D6C"/>
<path fill-rule="evenodd" clip-rule="evenodd" d="M23.1096 54.6782H101.818C104.788 54.6782 107.237 57.0853 107.237 60.0956C107.237 63.0663 104.788 65.5145 101.818 65.5145C104.788 65.5145 107.237 67.9216 107.237 70.8922C107.237 73.9025 104.788 76.311 101.818 76.311H23.1096C17.1697 76.311 12.313 71.4543 12.313 65.5145C12.313 59.5349 17.1697 54.6782 23.1096 54.6782Z" fill="#F1404B"/>
<path fill-rule="evenodd" clip-rule="evenodd" d="M23.1096 54.6782H64.812C52.6108 66.558 36.234 74.1843 18.2132 75.1471C14.7201 73.3418 12.313 69.6901 12.313 65.5145C12.313 59.5349 17.1697 54.6782 23.1096 54.6782Z" fill="#F36069"/>
<path d="M101.818 66.932H31.7792C30.9962 66.932 30.3633 66.2976 30.3633 65.516C30.3633 64.7344 30.9962 64.1001 31.7792 64.1001H101.818C102.601 64.1001 103.233 64.7344 103.233 65.516C103.233 66.2976 102.601 66.932 101.818 66.932Z" fill="#F1404B"/>
<path fill-rule="evenodd" clip-rule="evenodd" d="M96.4003 33.0044H17.6907C14.7201 33.0044 12.313 35.4526 12.313 38.4232C12.313 41.3939 14.7201 43.8406 17.6907 43.8406C14.7201 43.8406 12.313 46.2491 12.313 49.2594C12.313 52.2301 14.7201 54.6783 17.6907 54.6783H96.4003C102.381 54.6783 107.237 49.7805 107.237 43.8406C107.237 37.8597 102.381 33.0044 96.4003 33.0044Z" fill="#113FFF"/>
<path fill-rule="evenodd" clip-rule="evenodd" d="M80.1849 33.0044H17.6907C14.7201 33.0044 12.313 35.4526 12.313 38.4232C12.313 41.3939 14.7201 43.8406 17.6907 43.8406C14.7201 43.8406 12.313 46.2491 12.313 49.2594C12.313 52.2301 14.7201 54.6783 17.6907 54.6783H64.812C71.154 48.4963 76.4114 41.1517 80.1849 33.0044Z" fill="#95A9FF"/>
<path d="M87.7306 45.2567H17.6908C16.9078 45.2567 16.2749 44.6224 16.2749 43.8407C16.2749 43.0591 16.9078 42.4248 17.6908 42.4248H87.7306C88.5136 42.4248 89.1465 43.0591 89.1465 43.8407C89.1465 44.6224 88.5136 45.2567 87.7306 45.2567Z" fill="#113FFF"/>
<path fill-rule="evenodd" clip-rule="evenodd" d="M23.1096 11.3306H101.818C104.788 11.3306 107.237 13.7787 107.237 16.748C107.237 19.7186 104.788 22.1668 101.818 22.1668C104.788 22.1668 107.237 24.615 107.237 27.5842C107.237 30.5549 104.788 33.003 101.818 33.003H23.1096C17.1697 33.003 12.313 28.1067 12.313 22.1668C12.313 16.2269 17.1697 11.3306 23.1096 11.3306Z" fill="#98D4EF"/>
<path fill-rule="evenodd" clip-rule="evenodd" d="M23.1096 11.3306H86.2848C85.4013 18.9965 83.2745 26.2617 80.1835 33.0044H23.1096C17.1697 33.0044 12.313 28.1081 12.313 22.1682C12.313 16.2269 17.1697 11.3306 23.1096 11.3306Z" fill="#A9DBF1"/>
<path d="M101.818 23.5829H31.7792C30.9962 23.5829 30.3633 22.9485 30.3633 22.1669C30.3633 21.3853 30.9962 20.751 31.7792 20.751H101.818C102.601 20.751 103.233 21.3853 103.233 22.1669C103.233 22.9485 102.601 23.5829 101.818 23.5829Z" fill="#98D4EF"/>
</svg>
