<svg width="182" height="182" viewBox="0 0 182 182" fill="none" xmlns="http://www.w3.org/2000/svg">
<g opacity="0.3">
<path fill-rule="evenodd" clip-rule="evenodd" d="M90.6418 47.2515H116.77L150.123 63.709L163.128 99.4319L135.434 109.506L130.94 97.1437V169.911H50.3029V97.1437L45.8087 109.506L18.1128 99.4319L31.1182 63.709L64.4708 47.2515H90.6418Z" fill="#113FFF"/>
<path fill-rule="evenodd" clip-rule="evenodd" d="M90.6417 47.2514H116.77L124.075 50.8663V69.0881C124.075 108.944 91.4828 141.534 51.6282 141.534H50.3028V97.1437L45.8072 109.505L18.1113 99.4304L31.1168 63.7075L64.4708 47.25L90.6417 47.2514Z" fill="#95A9FF"/>
<path fill-rule="evenodd" clip-rule="evenodd" d="M90.6416 47.2515H64.4707C64.4707 56.5656 76.1905 64.1097 90.6402 64.1097C105.089 64.1097 116.769 56.5656 116.769 47.2515H90.6416Z" fill="#2E294E"/>
<path d="M111.903 47.5504L92.0561 37.6289V32.1506C97.5244 31.4497 101.768 26.7586 101.768 21.0849C101.768 14.9256 96.7754 9.91455 90.6401 9.91455C84.4808 9.91455 79.4697 14.9256 79.4697 21.0849C79.4697 21.868 80.1041 22.5009 80.8857 22.5009C81.6673 22.5009 82.3016 21.868 82.3016 21.0849C82.3016 16.4874 86.0425 12.7464 90.6401 12.7464C95.215 12.7464 98.9361 16.4874 98.9361 21.0849C98.9361 25.6811 95.215 29.4206 90.6401 29.4206C89.8585 29.4206 89.2242 30.0535 89.2242 30.8366V37.6303L69.3386 47.5504C68.6392 47.8987 68.3545 48.7497 68.7029 49.4492C68.9507 49.9462 69.4519 50.2336 69.9716 50.2336C70.1839 50.2336 70.3992 50.1869 70.6017 50.0849L90.6401 40.0884L110.638 50.0849C111.34 50.4333 112.188 50.1501 112.538 49.452C112.887 48.7511 112.603 47.9001 111.903 47.5504Z" fill="#2E294E"/>
<path fill-rule="evenodd" clip-rule="evenodd" d="M69.7692 47.2515H64.4707C64.4707 56.5656 76.1905 64.1097 90.6402 64.1097C105.089 64.1097 116.769 56.5656 116.769 47.2515H111.472C111.472 47.655 111.432 48.0147 111.35 48.4154C110.748 51.4271 107.858 53.8356 105.329 55.2799C100.955 57.7691 95.5762 58.8112 90.6402 58.8112C85.6617 58.8112 80.2854 57.7691 75.9101 55.2799C73.3812 53.8356 70.4913 51.4271 69.8895 48.4154C69.8102 48.0147 69.7692 47.655 69.7692 47.2515Z" fill="#514D6C"/>
</g>
</svg>
