<svg width="182" height="182" viewBox="0 0 182 182" fill="none" xmlns="http://www.w3.org/2000/svg">
<g opacity="0.3">
<path fill-rule="evenodd" clip-rule="evenodd" d="M135.414 52.5317L146.572 83.2762L122.73 91.946L118.877 81.3094V144.003H49.4392V81.3094L45.5453 91.946L21.7036 83.2762L32.9037 52.5317C45.5071 48.3972 55.8619 45.5072 65.2935 43.8223C67.3409 49.3204 75.0069 53.4139 84.1581 53.4139C93.3094 53.4139 100.975 49.319 102.982 43.8223C112.415 45.5072 122.771 48.3972 135.414 52.5317Z" fill="#95A9FF"/>
<path fill-rule="evenodd" clip-rule="evenodd" d="M66.6189 144.003H49.4406V81.3094L45.5468 91.946L21.7051 83.2762L32.9038 52.5317C45.5071 48.3972 55.8619 45.5072 65.2935 43.8223C67.341 49.3204 75.0069 53.4139 84.1582 53.4139C93.3094 53.4139 100.975 49.319 102.982 43.8223C106.313 44.424 109.766 45.1872 113.417 46.0694V76.2913C113.419 107.077 93.9126 133.568 66.6189 144.003Z" fill="#113FFF"/>
<path fill-rule="evenodd" clip-rule="evenodd" d="M144.524 32.5017C148.057 32.5017 150.906 29.6118 150.906 26.0804C150.906 22.549 148.055 19.6987 144.524 19.6987C140.992 19.6987 138.103 22.549 138.103 26.0804C138.103 29.6118 140.992 32.5017 144.524 32.5017Z" fill="#53B7E4"/>
<path fill-rule="evenodd" clip-rule="evenodd" d="M144.524 19.6987C144.806 19.6987 145.126 19.6987 145.407 19.7384C146.451 20.9009 147.094 22.3862 147.094 24.074C147.094 27.6054 144.243 30.4953 140.671 30.4953C140.391 30.4953 140.069 30.4557 139.788 30.4146C138.744 29.2903 138.103 27.7654 138.103 26.079C138.103 22.549 140.951 19.6987 144.524 19.6987Z" fill="#75C6E9"/>
<path fill-rule="evenodd" clip-rule="evenodd" d="M47.0717 36.0754C50.6045 36.0754 53.4944 33.1854 53.4944 29.6527C53.4944 26.1213 50.6045 23.271 47.0717 23.271C43.5389 23.271 40.6504 26.1213 40.6504 29.6527C40.6504 33.1854 43.5403 36.0754 47.0717 36.0754Z" fill="#53B7E4"/>
<path fill-rule="evenodd" clip-rule="evenodd" d="M47.0717 23.271C47.6338 23.271 48.2356 23.3517 48.7567 23.4721C49.5199 24.5567 50.0013 25.8409 50.0013 27.2852C50.0013 30.8166 47.1114 33.6669 43.5786 33.6669C43.0179 33.6669 42.4147 33.5862 41.8936 33.4658C41.1304 32.3812 40.6504 31.0969 40.6504 29.6527C40.6504 26.1199 43.5403 23.271 47.0717 23.271Z" fill="#75C6E9"/>
<path fill-rule="evenodd" clip-rule="evenodd" d="M108.442 35.5515C116.147 35.5515 122.41 29.2506 122.41 21.5436C122.41 13.8366 116.149 7.53564 108.442 7.53564C100.735 7.53564 94.4336 13.8366 94.4336 21.5436C94.4336 29.2506 100.736 35.5515 108.442 35.5515Z" fill="#53B7E4"/>
<path fill-rule="evenodd" clip-rule="evenodd" d="M108.442 7.53711C108.803 7.53711 109.164 7.57676 109.566 7.61782C112.415 10.1453 114.221 13.8791 114.221 18.0533C114.221 25.7589 107.96 32.0202 100.213 32.0202C99.8524 32.0202 99.4914 32.0202 99.0906 31.9806C96.2403 29.412 94.4336 25.7193 94.4336 21.5451C94.4336 13.8381 100.695 7.53711 108.442 7.53711Z" fill="#75C6E9"/>
<path fill-rule="evenodd" clip-rule="evenodd" d="M118.877 113.579C124.456 113.579 129.031 109.004 129.031 103.425C129.031 97.8053 124.456 93.27 118.877 93.27C113.257 93.27 108.722 97.8053 108.722 103.425C108.722 109.003 113.257 113.579 118.877 113.579Z" fill="#53B7E4"/>
<path fill-rule="evenodd" clip-rule="evenodd" d="M118.877 93.27C119.84 93.27 120.803 93.3904 121.686 93.6707C123.091 95.3968 123.933 97.6042 123.933 100.013C123.933 105.633 119.398 110.168 113.778 110.168C112.776 110.168 111.852 110.048 110.969 109.767C109.564 108.041 108.722 105.834 108.722 103.425C108.722 97.8053 113.257 93.27 118.877 93.27Z" fill="#75C6E9"/>
<path fill-rule="evenodd" clip-rule="evenodd" d="M58.5507 111.973C64.1706 111.973 68.7059 107.398 68.7059 101.818C68.7059 96.1993 64.1706 91.6641 58.5507 91.6641C52.9719 91.6641 48.397 96.1993 48.397 101.818C48.397 107.398 52.9719 111.973 58.5507 111.973Z" fill="#53B7E4"/>
<path fill-rule="evenodd" clip-rule="evenodd" d="M58.5507 91.6641C59.9964 91.6641 61.3203 91.9444 62.5649 92.4655C63.4881 94.0301 64.0503 95.8369 64.0503 97.764C64.0503 103.382 59.515 107.919 53.8951 107.919C52.4905 107.919 51.1255 107.637 49.9219 107.116C48.9591 105.552 48.397 103.745 48.397 101.818C48.397 96.1993 52.9719 91.6641 58.5507 91.6641Z" fill="#75C6E9"/>
<path fill-rule="evenodd" clip-rule="evenodd" d="M25.4375 120.763H155.802L143.801 168.286C142.998 171.497 140.228 173.703 136.898 173.703H44.3418C41.0511 173.703 38.2405 171.496 37.4391 168.286L25.4375 120.763Z" fill="#3F3B5D"/>
<path fill-rule="evenodd" clip-rule="evenodd" d="M25.4375 120.763H98.0047C84.7189 137.74 64.0886 148.698 40.9704 148.698H32.5017L25.4375 120.763Z" fill="#514D6C"/>
<path fill-rule="evenodd" clip-rule="evenodd" d="M22.5076 115.426H158.773C161.702 115.426 164.111 117.833 164.111 120.764C164.111 123.735 161.702 126.144 158.773 126.144H22.5076C19.537 126.144 17.1299 123.735 17.1299 120.764C17.1299 117.833 19.537 115.426 22.5076 115.426Z" fill="#625F7A"/>
<path fill-rule="evenodd" clip-rule="evenodd" d="M22.5076 115.426H101.819C99.3708 119.279 96.5205 122.85 93.3899 126.142H22.5076C19.537 126.142 17.1299 123.734 17.1299 120.763C17.1299 117.833 19.537 115.426 22.5076 115.426Z" fill="#747089"/>
</g>
</svg>
