<svg width="195" height="205" viewBox="0 0 195 205" fill="none" xmlns="http://www.w3.org/2000/svg">
<path d="M99.8949 119.674C76.6499 119.674 57.8055 100.83 57.8055 77.5841C57.8055 54.3399 76.6499 35.4942 99.8949 35.4942C123.141 35.4942 141.985 54.3399 141.985 77.5841C141.985 100.83 123.141 119.674 99.8949 119.674ZM99.8949 31.0362C74.1868 31.0362 53.3459 51.8762 53.3459 77.5841C53.3459 103.294 74.1868 124.134 99.8949 124.134C125.605 124.134 146.445 103.294 146.445 77.5841C146.445 51.8762 125.605 31.0362 99.8949 31.0362Z" fill="#80CC28"/>
<path d="M126.621 101.564C132.425 95.101 135.918 86.52 135.799 77.1192C135.554 57.6521 119.622 41.8144 100.153 41.6777C80.2029 41.5389 63.9875 57.6675 63.9875 77.5841C63.9875 89.7682 70.0555 100.533 79.3338 107.025C93.326 116.814 112.976 110.63 118.333 94.4157C118.399 94.2107 118.465 94.0058 118.527 93.8009C122.319 81.3436 116.603 68.2583 105.541 62.3436C107.259 62.5155 108.989 62.8571 110.706 63.3794C124.878 67.6919 132.87 82.679 128.558 96.8529C128.051 98.5123 127.399 100.086 126.621 101.564Z" fill="#0059D6"/>
<path d="M42.1339 8.30544C46.0827 8.30544 49.2835 11.5052 49.2835 15.4541C49.2835 19.4031 46.0827 22.6028 42.1339 22.6028C38.1854 22.6028 34.9846 19.4031 34.9846 15.4541C34.9846 11.5052 38.1854 8.30544 42.1339 8.30544ZM64.5577 8.30544C68.5062 8.30544 71.707 11.5052 71.707 15.4541C71.707 19.4031 68.5062 22.6028 64.5577 22.6028C60.6092 22.6028 57.4079 19.4031 57.4079 15.4541C57.4079 11.5052 60.6092 8.30544 64.5577 8.30544ZM153.686 77.5841C153.686 107.245 129.556 131.375 99.8949 131.375C70.235 131.375 46.1047 107.245 46.1047 77.5841C46.1047 47.925 70.235 23.795 99.8949 23.795C129.556 23.795 153.686 47.925 153.686 77.5841ZM138.792 12.261C140.555 12.261 141.985 13.6912 141.985 15.4541C141.985 17.217 140.555 18.6472 138.792 18.6472C137.029 18.6472 135.599 17.217 135.599 15.4541C135.599 13.6912 137.029 12.261 138.792 12.261ZM148.36 12.261C150.123 12.261 151.553 13.6912 151.553 15.4541C151.553 17.217 150.123 18.6472 148.36 18.6472C146.597 18.6472 145.167 17.217 145.167 15.4541C145.167 13.6912 146.597 12.261 148.36 12.261ZM157.928 12.261C159.693 12.261 161.121 13.6912 161.121 15.4541C161.121 17.217 159.693 18.6472 157.928 18.6472C156.165 18.6472 154.735 17.217 154.735 15.4541C154.735 13.6912 156.165 12.261 157.928 12.261ZM35.8456 138.883C38.1797 139.978 40.2042 141.466 41.8785 143.229C46.6631 139.066 53.6344 137.863 59.7454 140.73C63.0237 142.266 65.5575 144.745 67.1834 147.691C72.8953 143.612 80.5816 142.654 87.3876 145.847C92.4838 148.238 96.1031 152.495 97.8191 157.423C103.456 155.391 109.584 156.31 114.313 159.538C115.739 156.825 117.998 154.52 120.955 153.057C126.464 150.331 132.835 151.292 137.271 154.992C138.761 153.355 140.577 151.962 142.681 150.92C145.57 149.489 148.653 148.894 151.657 149.04C149.916 141.038 153.746 132.576 161.419 128.777C166 126.51 171.073 126.342 175.546 127.902V14.1804C175.546 6.34859 169.198 -0.000152588 161.366 -0.000152588H38.4241C30.5932 -0.000152588 24.2449 6.34859 24.2449 14.1804V138.083C29.5154 137.107 33.8715 137.958 35.8456 138.883Z" fill="#113FFF"/>
<path d="M184.02 157.881C178.422 160.651 171.82 159.128 167.948 154.578C166.703 156.385 164.995 157.91 162.889 158.952C160.782 159.994 158.532 160.428 156.342 160.323C157.613 166.16 154.819 172.333 149.222 175.103C147.009 176.198 144.64 176.621 142.344 176.453C143.472 182.209 140.68 188.236 135.169 190.962C132.128 192.467 128.791 192.705 125.757 191.879C125.032 192.454 124.237 192.963 123.373 193.391C118.798 195.654 113.553 195.05 109.675 192.269C108.549 192.56 107.383 192.716 106.206 192.732C105.01 194.281 103.449 195.59 101.576 196.518C94.9739 199.786 86.974 197.084 83.7068 190.482C83.585 190.235 83.4741 189.988 83.3692 189.737C80.8613 189.971 78.2605 189.559 75.8158 188.41C74.8592 187.963 73.9739 187.423 73.165 186.808C69.8527 187.785 66.184 187.602 62.8113 186.02C56.699 183.153 53.4945 176.601 54.6 170.257C52.0841 170.493 49.4737 170.083 47.0203 168.932C40.8122 166.019 37.6032 159.309 38.8642 152.87C36.46 153.037 33.9813 152.612 31.6445 151.517C29.3084 150.422 27.3972 148.787 25.9886 146.832C21.8444 151.916 14.6319 153.74 8.42393 150.827C4.13055 148.813 1.27418 144.981 0.33564 140.679C-1.09211 147.211 2.11574 154.093 8.42393 157.052C14.6319 159.963 21.8444 158.141 25.9886 153.055C27.3972 155.012 29.3084 156.647 31.6445 157.742C33.9813 158.837 36.46 159.263 38.8642 159.095C37.6032 165.532 40.8122 172.244 47.0203 175.158C49.4737 176.308 52.0841 176.718 54.6 176.482C53.4945 182.826 56.699 189.376 62.8113 192.245C66.184 193.825 69.8527 194.01 73.165 193.034C73.9739 193.646 74.8592 194.186 75.8158 194.636C78.2605 195.784 80.8613 196.194 83.3692 195.962C83.4741 196.211 83.585 196.46 83.7068 196.707C86.974 203.307 94.9739 206.011 101.576 202.743C103.449 201.815 105.01 200.506 106.206 198.955C107.383 198.942 108.549 198.785 109.675 198.494C113.553 201.275 118.798 201.879 123.373 199.616C124.237 199.189 125.032 198.68 125.757 198.104C128.791 198.931 132.128 198.693 135.169 197.188C140.68 194.462 143.472 188.435 142.344 182.679C144.64 182.846 147.009 182.423 149.222 181.328C154.819 178.558 157.613 172.385 156.342 166.548C158.532 166.654 160.782 166.22 162.889 165.177C164.995 164.135 166.703 162.61 167.948 160.801C171.82 165.354 178.422 166.876 184.02 164.104C189.707 161.29 192.497 154.961 191.071 149.04C190.179 152.751 187.708 156.054 184.02 157.881Z" fill="#113FFF"/>
<path d="M110.369 184.821C110.369 187.011 108.593 188.787 106.404 188.787C104.214 188.787 102.438 187.011 102.438 184.821C102.438 182.63 104.214 180.856 106.404 180.856C108.593 180.856 110.369 182.63 110.369 184.821Z" fill="#113FFF"/>
<path d="M175.546 143.271C175.546 145.461 173.77 147.237 171.58 147.237C169.389 147.237 167.615 145.461 167.615 143.271C167.615 141.08 169.389 139.306 171.58 139.306C173.77 139.306 175.546 141.08 175.546 143.271Z" fill="#113FFF"/>
<path d="M194.703 137.845C194.703 140.034 192.929 141.81 190.739 141.81C188.548 141.81 186.774 140.034 186.774 137.845C186.774 135.655 188.548 133.879 190.739 133.879C192.929 133.879 194.703 135.655 194.703 137.845Z" fill="#113FFF"/>
<path d="M12.6996 127.411C12.6996 129.599 10.9243 131.375 8.7343 131.375C6.54431 131.375 4.76904 129.599 4.76904 127.411C4.76904 125.221 6.54431 123.444 8.7343 123.444C10.9243 123.444 12.6996 125.221 12.6996 127.411Z" fill="#113FFF"/>
<path d="M16.7613 143.945C16.7613 145.748 15.2999 147.209 13.497 147.209C11.6942 147.209 10.2325 145.748 10.2325 143.945C10.2325 142.142 11.6942 140.679 13.497 140.679C15.2999 140.679 16.7613 142.142 16.7613 143.945Z" fill="#113FFF"/>
<path d="M98.9848 189.519C98.9848 191.321 97.5216 192.782 95.7197 192.782C93.9169 192.782 92.4552 191.321 92.4552 189.519C92.4552 187.716 93.9169 186.255 95.7197 186.255C97.5216 186.255 98.9848 187.716 98.9848 189.519Z" fill="#113FFF"/>
<path d="M135.215 180.856C135.215 182.659 133.754 184.12 131.951 184.12C130.149 184.12 128.688 182.659 128.688 180.856C128.688 179.054 130.149 177.591 131.951 177.591C133.754 177.591 135.215 179.054 135.215 180.856Z" fill="#113FFF"/>
<path d="M81.931 178.935C81.931 180.737 80.4696 182.198 78.6667 182.198C76.8637 182.198 75.4025 180.737 75.4025 178.935C75.4025 177.132 76.8637 175.669 78.6667 175.669C80.4696 175.669 81.931 177.132 81.931 178.935Z" fill="#113FFF"/>
<path d="M148.514 169.391C148.514 171.193 147.053 172.654 145.248 172.654C143.446 172.654 141.985 171.193 141.985 169.391C141.985 167.588 143.446 166.127 145.248 166.127C147.053 166.127 148.514 167.588 148.514 169.391Z" fill="#113FFF"/>
<path d="M194.703 122.94C194.703 124.742 193.242 126.203 191.439 126.203C189.637 126.203 188.176 124.742 188.176 122.94C188.176 121.137 189.637 119.674 191.439 119.674C193.242 119.674 194.703 121.137 194.703 122.94Z" fill="#113FFF"/>
<path d="M52.096 160.543C52.096 161.841 51.044 162.892 49.7469 162.892C48.4496 162.892 47.3978 161.841 47.3978 160.543C47.3978 159.247 48.4496 158.194 49.7469 158.194C51.044 158.194 52.096 159.247 52.096 160.543Z" fill="#113FFF"/>
<path d="M69.4658 176.158C69.4658 177.454 68.4142 178.507 67.1169 178.507C65.8194 178.507 64.7678 177.454 64.7678 176.158C64.7678 174.86 65.8194 173.809 67.1169 173.809C68.4142 173.809 69.4658 174.86 69.4658 176.158Z" fill="#113FFF"/>
<path d="M182.911 150.258C182.911 151.556 181.858 152.608 180.562 152.608C179.264 152.608 178.213 151.556 178.213 150.258C178.213 148.96 179.264 147.909 180.562 147.909C181.858 147.909 182.911 148.96 182.911 150.258Z" fill="#113FFF"/>
<path d="M186.774 107.97C186.774 109.268 185.721 110.319 184.425 110.319C183.127 110.319 182.076 109.268 182.076 107.97C182.076 106.674 183.127 105.621 184.425 105.621C185.721 105.621 186.774 106.674 186.774 107.97Z" fill="#113FFF"/>
<path d="M17.3977 112.668C17.3977 113.966 16.3459 115.018 15.0488 115.018C13.7513 115.018 12.6995 113.966 12.6995 112.668C12.6995 111.373 13.7513 110.319 15.0488 110.319C16.3459 110.319 17.3977 111.373 17.3977 112.668Z" fill="#113FFF"/>
<path d="M122.976 187.17C122.976 188.468 121.923 189.519 120.627 189.519C119.329 189.519 118.278 188.468 118.278 187.17C118.278 185.872 119.329 184.821 120.627 184.821C121.923 184.821 122.976 185.872 122.976 187.17Z" fill="#113FFF"/>
</svg>
