<svg width="531" height="113" viewBox="0 0 531 113" fill="none" xmlns="http://www.w3.org/2000/svg">
<path d="M44.597 37.7938H20.2296V50.2075H44.1373V64.3682H20.2296V88H5.51716V23.6331H44.597V37.7938ZM86.2085 42.0237H100.001V88H86.2085V83.6782C83.1741 87.1724 78.6684 89.2873 72.5075 89.2873C60.4617 89.2873 50.5309 78.7128 50.5309 65.0118C50.5309 51.3109 60.4617 40.7363 72.5075 40.7363C78.6684 40.7363 83.1741 42.8512 86.2085 46.3454V42.0237ZM75.2661 76.2301C81.6109 76.2301 86.2085 71.9083 86.2085 65.0118C86.2085 58.1154 81.6109 53.7936 75.2661 53.7936C68.9214 53.7936 64.3238 58.1154 64.3238 65.0118C64.3238 71.9083 68.9214 76.2301 75.2661 76.2301ZM122.729 55.4488C122.729 60.6901 145.349 57.1959 145.349 74.2071C145.349 84.7817 136.154 89.2873 126.223 89.2873C117.028 89.2873 110.039 85.7931 106.453 78.345L118.407 71.5405C119.602 75.0347 122.177 76.9657 126.223 76.9657C129.533 76.9657 131.188 75.9542 131.188 74.1151C131.188 69.0578 108.568 71.7244 108.568 55.8166C108.568 45.7937 117.028 40.7363 126.591 40.7363C134.039 40.7363 140.66 44.0466 144.522 50.5753L132.752 56.92C131.464 54.5292 129.625 52.8741 126.591 52.8741C124.2 52.8741 122.729 53.7936 122.729 55.4488ZM177.831 55.2649H168.36V71.5405C168.36 75.4944 171.762 75.8622 177.831 75.4944V88C159.808 89.8391 154.567 84.4138 154.567 71.5405V55.2649H147.21V42.0237H154.567V33.2882L168.36 29.1503V42.0237H177.831V55.2649Z" fill="#113FFF"/>
<path d="M201.71 73.8393H224.699V88H186.998V23.6331H201.71V73.8393ZM263.648 42.0237H277.441V88H263.648V83.6782C260.614 87.1724 256.108 89.2873 249.947 89.2873C237.902 89.2873 227.971 78.7128 227.971 65.0118C227.971 51.3109 237.902 40.7363 249.947 40.7363C256.108 40.7363 260.614 42.8512 263.648 46.3454V42.0237ZM252.706 76.2301C259.051 76.2301 263.648 71.9083 263.648 65.0118C263.648 58.1154 259.051 53.7936 252.706 53.7936C246.361 53.7936 241.764 58.1154 241.764 65.0118C241.764 71.9083 246.361 76.2301 252.706 76.2301ZM317.261 42.0237H331.054V88H317.261V83.6782C314.778 87.0805 310.181 89.2873 304.112 89.2873C294.825 89.2873 286.917 82.6667 286.917 70.2531V42.0237H300.71V68.2302C300.71 73.9312 304.296 76.5979 308.71 76.5979C313.767 76.5979 317.261 73.6554 317.261 67.1267V42.0237ZM368.112 40.7363C377.399 40.7363 385.307 47.3569 385.307 59.7705V88H371.514V61.7935C371.514 56.0924 367.928 53.4258 363.514 53.4258C358.457 53.4258 354.962 56.3683 354.962 62.8969V88H341.17V42.0237H354.962V46.3454C357.445 42.9432 362.043 40.7363 368.112 40.7363ZM428.157 23.6331H441.95V88H428.157V83.6782C425.123 87.1724 420.617 89.2873 414.457 89.2873C402.411 89.2873 392.48 78.7128 392.48 65.0118C392.48 51.3109 402.411 40.7363 414.457 40.7363C420.617 40.7363 425.123 42.8512 428.157 46.3454V23.6331ZM417.215 76.2301C423.56 76.2301 428.157 71.9083 428.157 65.0118C428.157 58.1154 423.56 53.7936 417.215 53.7936C410.87 53.7936 406.273 58.1154 406.273 65.0118C406.273 71.9083 410.87 76.2301 417.215 76.2301ZM465.862 50.2075C467.701 44.0466 473.862 41.1041 479.655 41.1041V56.7361C473.954 55.8166 465.862 58.1154 465.862 67.2187V88H452.069V42.0237H465.862V50.2075ZM515.966 42.0237H530.678L514.954 86.6207C509.805 101.241 501.621 107.034 488.748 106.391V93.5172C495.184 93.5172 498.219 91.4942 500.242 85.8851L481.943 42.0237H497.115L507.322 70.1612L515.966 42.0237Z" fill="#2ADD7B"/>
</svg>
