<svg width="38" height="38" viewBox="0 0 38 38" fill="none" xmlns="http://www.w3.org/2000/svg">
<path d="M19 3.16667C10.2552 3.16667 3.16663 10.2553 3.16663 19C3.16663 27.7447 10.2552 34.8333 19 34.8333C27.7447 34.8333 34.8333 27.7447 34.8333 19C34.8333 10.2553 27.7447 3.16667 19 3.16667ZM14.6458 12.6667C15.7383 12.6667 16.625 13.5533 16.625 14.6458C16.625 15.7383 15.7383 16.625 14.6458 16.625C13.5533 16.625 12.6666 15.7383 12.6666 14.6458C12.6666 13.5533 13.5533 12.6667 14.6458 12.6667ZM23.3541 25.3333C22.2616 25.3333 21.375 24.4467 21.375 23.3542C21.375 22.2617 22.2616 21.375 23.3541 21.375C24.4466 21.375 25.3333 22.2617 25.3333 23.3542C25.3333 24.4467 24.4466 25.3333 23.3541 25.3333ZM26.1725 13.5059L13.5058 26.1725C13.2747 26.4037 12.9706 26.5208 12.6666 26.5208C12.3626 26.5208 12.0586 26.4053 11.8274 26.1725C11.3635 25.7086 11.3635 24.9565 11.8274 24.4926L24.4941 11.8259C24.958 11.362 25.7101 11.362 26.1741 11.8259C26.638 12.2898 26.6364 13.042 26.1725 13.5059Z" fill="#3A63DF"/>
</svg>
